{
  "accessors": [
    {
      "bufferView": 2,
      "componentType": 5126,
      "count": 51977,
      "max": [
        28.915325164794922,
        27.356212615966797,
        181.21928405761719
      ],
      "min": [
        -41.410770416259766,
        -29.136363983154297,
        -0.47507897019386292
      ],
      "type": "VEC3"
    },
    {
      "bufferView": 2,
      "byteOffset": 623724,
      "componentType": 5126,
      "count": 51977,
      "max": [
        0.9999769926071167,
        0.99999874830245972,
        0.99999469518661499
      ],
      "min": [
        -0.99999630451202393,
        -0.99999707937240601,
        -0.99999731779098511
      ],
      "type": "VEC3"
    },
    {
      "bufferView": 3,
      "componentType": 5126,
      "count": 51977,
      "max": [
        0.99997711181640625,
        0.99997717142105103,
        0.99991142749786377,
        1
      ],
      "min": [
        -0.99999129772186279,
        -0.99992746114730835,
        -0.99999713897705078,
        -1
      ],
      "type": "VEC4"
    },
    {
      "bufferView": 1,
      "componentType": 5126,
      "count": 51977,
      "max": [
        0.99584001302719116,
        0.99804002046585083
      ],
      "min": [
        0.0019499999471008778,
        0.0019500255584716797
      ],
      "type": "VEC2"
    },
    {
      "bufferView": 0,
      "componentType": 5125,
      "count": 299994,
      "max": [
        51976
      ],
      "min": [
        0
      ],
      "type": "SCALAR"
    }
  ],
  "asset": {
    "extras": {
      "author": "deep3dstudio (https://sketchfab.com/deep3dstudio)",
      "license": "CC-BY-4.0 (http://creativecommons.org/licenses/by/4.0/)",
      "source": "https://sketchfab.com/3d-models/free-download-male-surgical-doctor-working-222-79e23af07d1243c789b3372c6ec72c27",
      "title": "FREE DOWNLOAD: Male surgical doctor working 222"
    },
    "generator": "Sketchfab-9.35.0",
    "version": "2.0"
  },
  "bufferViews": [
    {
      "buffer": 0,
      "byteLength": 1199976,
      "byteOffset": 0,
      "name": "floatBufferViews",
      "target": 34963
    },
    {
      "buffer": 0,
      "byteLength": 415816,
      "byteOffset": 1199976,
      "byteStride": 8,
      "name": "floatBufferViews",
      "target": 34962
    },
    {
      "buffer": 0,
      "byteLength": 1247448,
      "byteOffset": 1615792,
      "byteStride": 12,
      "name": "floatBufferViews",
      "target": 34962
    },
    {
      "buffer": 0,
      "byteLength": 831632,
      "byteOffset": 2863240,
      "byteStride": 16,
      "name": "floatBufferViews",
      "target": 34962
    }
  ],
  "buffers": [
    {
      "byteLength": 3694872,
      "uri": "scene.bin"
    }
  ],
  "images": [
    {
      "uri": "textures/default_baseColor.jpeg"
    },
    {
      "uri": "textures/default_normal.png"
    }
  ],
  "materials": [
    {
      "doubleSided": true,
      "name": "default",
      "normalTexture": {
        "index": 1,
        "scale": 1,
        "texCoord": 0
      },
      "pbrMetallicRoughness": {
        "baseColorFactor": [
          1,
          1,
          1,
          1
        ],
        "baseColorTexture": {
          "index": 0,
          "texCoord": 0
        },
        "metallicFactor": 0,
        "roughnessFactor": 0.59999999999999998
      }
    }
  ],
  "meshes": [
    {
      "primitives": [
        {
          "attributes": {
            "NORMAL": 1,
            "POSITION": 0,
            "TANGENT": 2,
            "TEXCOORD_0": 3
          },
          "indices": 4,
          "material": 0,
          "mode": 4
        }
      ]
    }
  ],
  "nodes": [
    {
      "children": [
        1
      ],
      "name": "RootNode (gltf orientation matrix)",
      "rotation": [
        -0.70710678118654746,
        -0,
        -0,
        0.70710678118654757
      ]
    },
    {
      "children": [
        2
      ],
      "name": "RootNode (model correction matrix)"
    },
    {
      "children": [
        3
      ],
      "name": "032M_02SET_03SHOT.obj.cleaner.materialmerger.gles"
    },
    {
      "mesh": 0,
      "name": ""
    }
  ],
  "samplers": [
    {
      "magFilter": 9729,
      "minFilter": 9987,
      "wrapS": 10497,
      "wrapT": 10497
    }
  ],
  "scene": 0,
  "scenes": [
    {
      "name": "OSG_Scene",
      "nodes": [
        0
      ]
    }
  ],
  "textures": [
    {
      "sampler": 0,
      "source": 0
    },
    {
      "sampler": 0,
      "source": 1
    }
  ]
}

